<svg width="300px" height="300px" viewBox="0 0 300 300" version="1.1" xmlns="http://www.w3.org/2000/svg" xmlns:xlink="http://www.w3.org/1999/xlink">
    <!-- Generator: Sketch 3.8.1 (29687) - http://www.bohemiancoding.com/sketch -->
    <title>nif</title>
    <desc>Created with Sketch.</desc>
    <defs/>
    <g id="Page-1" stroke="none" stroke-width="1" fill="none" fill-rule="evenodd" opacity="0.160835598">
        <g id="nif" fill="#208742">
            <path d="M99.876,157.812 C99.3959976,157.716 98.8740028,157.668 98.31,157.668 C97.7459972,157.668 97.2840018,157.704 96.924,157.776 L81.696,138.444 L81.696,154.536 C81.696,154.968002 81.8579984,155.291999 82.182,155.508 C82.5060016,155.724001 83.1479952,155.832 84.108,155.832 L84.576,157.776 C81.6959856,157.704 79.9200034,157.668 79.248,157.668 C78.5759966,157.668 77.3160092,157.704 75.468,157.776 L75.036,155.832 C77.1000103,155.784 78.132,155.352004 78.132,154.536 L78.132,135.24 C78.132,134.375996 77.2440089,133.944 75.468,133.944 L75,132 C77.8800144,132.072 79.823995,132.108 80.832,132.108 C81.840005,132.108 82.6559969,132.072 83.28,132 C83.28,132.288001 83.4479983,132.677998 83.784,133.17 C84.1200017,133.662002 84.4019989,134.081998 84.63,134.43 C84.8580011,134.778002 85.1579981,135.197998 85.53,135.69 C85.9020019,136.182002 86.2259986,136.607998 86.502,136.968 C86.7780014,137.328002 87.1319978,137.771997 87.564,138.3 C89.1480079,140.29201 90.1139983,141.503998 90.462,141.936 C90.8100017,142.368002 91.781992,143.62199 93.378,145.698 C94.974008,147.77401 95.9519982,149.027998 96.312,149.46 L96.276,135.24 C96.276,134.807998 96.1140016,134.484001 95.79,134.268 C95.4659984,134.051999 94.8240048,133.944 93.864,133.944 L93.396,132 C96.2760144,132.072 98.0579966,132.108 98.742,132.108 C99.4260034,132.108 100.679991,132.072 102.504,132 L102.936,133.944 C100.87199,133.992 99.84,134.423996 99.84,135.24 L99.876,157.812 L99.876,157.812 Z M109.596,149.496 C109.596,151.128008 109.973996,152.597993 110.73,153.906 C111.486004,155.214007 112.559993,155.868 113.952,155.868 C115.344007,155.868 116.345997,155.322005 116.958,154.23 C117.570003,153.137995 117.876,151.764008 117.876,150.108 C117.876,148.451992 117.510004,146.970007 116.778,145.662 C116.045996,144.353993 114.966007,143.7 113.538,143.7 C112.109993,143.7 111.096003,144.257994 110.496,145.374 C109.895997,146.490006 109.596,147.863992 109.596,149.496 L109.596,149.496 L109.596,149.496 Z M113.664,158.1 C111.095987,158.1 108.996008,157.398007 107.364,155.994 C105.731992,154.589993 104.916,152.652012 104.916,150.18 C104.916,147.707988 105.755992,145.650008 107.436,144.006 C109.116008,142.361992 111.233987,141.54 113.79,141.54 C116.346013,141.54 118.445992,142.277993 120.09,143.754 C121.734008,145.230007 122.556,147.215988 122.556,149.712 C122.556,152.208012 121.716008,154.229992 120.036,155.778 C118.355992,157.326008 116.232013,158.1 113.664,158.1 L113.664,158.1 L113.664,158.1 Z M139.872,135.24 L139.872,154.536 C139.872,154.968002 140.033998,155.291999 140.358,155.508 C140.682002,155.724001 141.323995,155.832 142.284,155.832 L142.752,157.776 C139.871986,157.704 137.904005,157.668 136.848,157.668 C135.791995,157.668 134.340009,157.704 132.492,157.776 L132.06,155.832 C133.212006,155.808 133.973998,155.688001 134.346,155.472 C134.718002,155.255999 134.904,154.944002 134.904,154.536 L134.904,135.24 C134.904,134.807998 134.742002,134.484001 134.418,134.268 C134.093998,134.051999 133.452005,133.944 132.492,133.944 L132.024,132 C134.904014,132.072 136.877995,132.108 137.946,132.108 C139.014005,132.108 140.459991,132.072 142.284,132 L142.716,133.944 C141.563994,133.968 140.802002,134.087999 140.43,134.304 C140.057998,134.520001 139.872,134.831998 139.872,135.24 L139.872,135.24 L139.872,135.24 Z M157.584,141.54 C158.376004,141.54 159.149996,141.767998 159.906,142.224 C160.662004,142.680002 161.123999,143.135998 161.292,143.592 C161.508001,143.496 161.861998,143.322001 162.354,143.07 C162.846002,142.817999 163.235999,142.626001 163.524,142.494 C163.812001,142.361999 164.171998,142.212001 164.604,142.044 C165.372004,141.707998 166.175996,141.54 167.016,141.54 C168.528008,141.54 169.721996,142.025995 170.598,142.998 C171.474004,143.970005 171.912,145.391991 171.912,147.264 L171.912,154.932 C171.912,155.148001 171.93,155.321999 171.966,155.454 C172.002,155.586001 172.139999,155.717999 172.38,155.85 C172.620001,155.982001 172.967998,156.048 173.424,156.048 L173.82,157.776 C171.299987,157.704 169.716003,157.668 169.068,157.668 C168.419997,157.668 167.292008,157.704 165.684,157.776 L165.324,156.048 C166.140004,156.024 166.691999,155.922001 166.98,155.742 C167.268001,155.561999 167.424,155.292002 167.448,154.932 L167.448,148.452 C167.448,147.131993 167.220002,146.190003 166.764,145.626 C166.307998,145.061997 165.600005,144.78 164.64,144.78 C163.679995,144.78 162.720005,144.995998 161.76,145.428 C161.832,145.860002 161.868,146.471996 161.868,147.264 L161.796,154.932 C161.796,155.148001 161.814,155.321999 161.85,155.454 C161.886,155.586001 162.023999,155.717999 162.264,155.85 C162.504001,155.982001 162.851998,156.048 163.308,156.048 L163.704,157.776 C161.183987,157.704 159.600003,157.668 158.952,157.668 C158.303997,157.668 157.176008,157.704 155.568,157.776 L155.208,156.048 C156.024004,156.024 156.575999,155.922001 156.864,155.742 C157.152001,155.561999 157.308,155.292002 157.332,154.932 L157.332,148.452 C157.332,146.699991 156.960004,145.596002 156.216,145.14 C155.831998,144.899999 155.292003,144.78 154.596,144.78 C153.899997,144.78 152.904006,145.055997 151.608,145.608 L151.608,154.932 C151.608,155.148001 151.626,155.321999 151.662,155.454 C151.698,155.586001 151.835999,155.717999 152.076,155.85 C152.316001,155.982001 152.663998,156.048 153.12,156.048 L153.516,157.776 C150.995987,157.704 149.412003,157.668 148.764,157.668 C148.115997,157.668 146.988008,157.704 145.38,157.776 L145.02,156.048 C145.836004,156.024 146.387999,155.922001 146.676,155.742 C146.964001,155.561999 147.12,155.292002 147.144,154.932 L147.144,146.292 C147.144,145.715997 147.012001,145.314001 146.748,145.086 C146.483999,144.857999 146.154002,144.744 145.758,144.744 C145.361998,144.744 145.068001,144.756 144.876,144.78 L144.372,143.304 C145.860007,142.943998 147.875987,142.260005 150.42,141.252 C150.732002,141.252 150.93,141.317999 151.014,141.45 C151.098,141.582001 151.164,141.696 151.212,141.792 C151.26,141.888 151.296,142.019999 151.32,142.188 C151.344,142.356001 151.356,142.499999 151.356,142.62 C151.356,142.740001 151.368,142.919999 151.392,143.16 C151.416,143.400001 151.428,143.579999 151.428,143.7 C151.476,143.676 151.673998,143.574001 152.022,143.394 C152.370002,143.213999 152.669999,143.064001 152.922,142.944 C153.174001,142.823999 153.515998,142.668001 153.948,142.476 C154.380002,142.283999 154.763998,142.128001 155.1,142.008 C155.964004,141.695998 156.791996,141.54 157.584,141.54 L157.584,141.54 L157.584,141.54 Z M183.504,151.08 C181.991992,151.392002 180.960003,151.757998 180.408,152.178 C179.855997,152.598002 179.58,153.089997 179.58,153.654 C179.58,154.218003 179.777998,154.667998 180.174,155.004 C180.570002,155.340002 181.091997,155.508 181.74,155.508 C182.388003,155.508 182.999997,155.244003 183.576,154.716 L183.504,151.08 L183.504,151.08 Z M190.236,155.184 L190.524,156.66 C190.115998,156.828001 189.270006,157.109998 187.986,157.506 C186.701994,157.902002 185.904002,158.1 185.592,158.1 C185.279998,158.1 185.052001,158.064 184.908,157.992 C184.763999,157.92 184.632001,157.788001 184.512,157.596 C184.391999,157.403999 184.308,157.254001 184.26,157.146 C184.212,157.037999 184.14,156.834001 184.044,156.534 C183.948,156.233998 183.888,156.048 183.864,155.976 C182.567994,157.392007 181.092008,158.1 179.436,158.1 C178.355995,158.1 177.444004,157.758003 176.7,157.074 C175.955996,156.389997 175.584,155.544005 175.584,154.536 C175.584,153.167993 176.129995,152.154003 177.222,151.494 C178.314005,150.833997 180.371985,150.180003 183.396,149.532 L183.396,148.236 C183.396,146.843993 183.240002,145.806003 182.928,145.122 C182.615998,144.437997 182.070004,144.096 181.29,144.096 C180.509996,144.096 179.904002,144.215999 179.472,144.456 L179.472,146.76 C179.472,146.904001 179.088004,147.047999 178.32,147.192 C177.551996,147.336001 176.988002,147.408 176.628,147.408 C176.267998,147.408 176.088,146.976004 176.088,146.112 C176.088,145.703998 176.159999,145.272002 176.304,144.816 C176.448001,144.359998 176.603999,144.036001 176.772,143.844 C177.204002,143.363998 178.133993,142.860003 179.562,142.332 C180.990007,141.803997 182.075996,141.54 182.82,141.54 C184.380008,141.54 185.597996,142.019995 186.474,142.98 C187.350004,143.940005 187.788,145.355991 187.788,147.228 L187.788,154.536 C187.788,154.992002 187.979998,155.22 188.364,155.22 L189.336,155.184 L190.236,155.184 L190.236,155.184 Z M197.004,147.084 C197.004,148.116005 197.297997,149.009996 197.886,149.766 C198.474003,150.522004 199.211996,150.9 200.1,150.9 C200.988004,150.9 201.665998,150.540004 202.134,149.82 C202.602002,149.099996 202.836,148.242005 202.836,147.246 C202.836,146.249995 202.554003,145.392004 201.99,144.672 C201.425997,143.951996 200.676005,143.592 199.74,143.592 C198.803995,143.592 198.114002,143.915997 197.67,144.564 C197.225998,145.212003 197.004,146.051995 197.004,147.084 L197.004,147.084 L197.004,147.084 Z M206.616,147.084 C206.616,148.932009 205.962007,150.431994 204.654,151.584 C203.345993,152.736006 201.73201,153.312 199.812,153.312 L198.192,153.312 C197.447996,153.504001 197.076,153.791998 197.076,154.176 C197.076,154.560002 197.495996,154.823999 198.336,154.968 C199.056004,155.184001 200.291991,155.351999 202.044,155.472 C204.180011,155.688001 205.523997,155.903999 206.076,156.12 C207.852009,156.792003 208.74,158.10599 208.74,160.062 C208.74,162.01801 207.78001,163.709993 205.86,165.138 C203.93999,166.566007 201.798012,167.28 199.434,167.28 C197.069988,167.28 195.174007,166.866004 193.746,166.038 C192.317993,165.209996 191.604,163.884009 191.604,162.06 C191.604,161.315996 191.855997,160.692003 192.36,160.188 C192.552001,159.995999 193.583991,159.276006 195.456,158.028 C194.927997,157.787999 194.442002,157.386003 193.998,156.822 C193.553998,156.257997 193.332,155.784002 193.332,155.4 C193.332,155.015998 193.427999,154.728001 193.62,154.536 C193.812001,154.343999 194.357996,153.978003 195.258,153.438 C196.158005,152.897997 196.62,152.616 196.644,152.592 C195.683995,152.255998 194.850004,151.626005 194.142,150.702 C193.433996,149.777995 193.08,148.752006 193.08,147.624 C193.08,145.943992 193.685994,144.510006 194.898,143.322 C196.110006,142.133994 197.69999,141.54 199.668,141.54 C200.244003,141.54 201.239993,141.641999 202.656,141.846 C204.072007,142.050001 205.373994,142.152 206.562,142.152 C207.750006,142.152 208.571998,142.116 209.028,142.044 L209.028,142.44 C209.028,143.496005 208.860002,144.323997 208.524,144.924 L205.428,144.348 C205.764002,144.540001 206.045999,144.929997 206.274,145.518 C206.502001,146.106003 206.616,146.627998 206.616,147.084 L206.616,147.084 L206.616,147.084 Z M200.1,164.976 C201.420007,164.976 202.445996,164.652003 203.178,164.004 C203.910004,163.355997 204.276,162.540005 204.276,161.556 C204.276,159.659991 202.416019,158.712 198.696,158.712 C198.263998,158.712 197.904001,158.795999 197.616,158.964 C196.463994,159.708004 195.888,160.691994 195.888,161.916 C195.888,162.852005 196.265996,163.595997 197.022,164.148 C197.778004,164.700003 198.803994,164.976 200.1,164.976 L200.1,164.976 L200.1,164.976 Z M225.516,149.172 L215.724,149.172 C215.724,150.564007 215.987997,151.871994 216.516,153.096 C216.828002,153.816004 217.337996,154.403998 218.046,154.86 C218.754004,155.316002 219.563995,155.544 220.476,155.544 C221.388005,155.544 222.233996,155.358002 223.014,154.986 C223.794004,154.613998 224.321999,154.290001 224.598,154.014 C224.874001,153.737999 225.071999,153.671999 225.192,153.816 L225.768,154.608 C224.951996,155.616005 223.938006,156.449997 222.726,157.11 C221.513994,157.770003 220.332006,158.1 219.18,158.1 C216.587987,158.1 214.584007,157.362007 213.168,155.886 C211.751993,154.409993 211.044,152.418013 211.044,149.91 C211.044,147.401987 211.835992,145.380008 213.42,143.844 C215.004008,142.307992 216.81599,141.54 218.856,141.54 C220.89601,141.54 222.569993,142.127994 223.878,143.304 C225.186007,144.480006 225.84,146.255988 225.84,148.632 C225.84,148.992002 225.732001,149.172 225.516,149.172 L225.516,149.172 L225.516,149.172 Z M221.7,147.012 C221.7,144.827989 220.800009,143.736 219,143.736 C218.111996,143.736 217.392003,144.071997 216.84,144.744 C216.287997,145.416003 215.964,146.171996 215.868,147.012 L221.7,147.012 L221.7,147.012 Z" id="No-Image"/>
        </g>
    </g>
</svg>